<svg width="14" height="15" viewBox="0 0 14 15" fill="none" xmlns="http://www.w3.org/2000/svg">
<path d="M11.6666 6.33334C11.6666 9.24592 8.4355 12.2793 7.3505 13.2161C7.24942 13.2921 7.12638 13.3332 6.99992 13.3332C6.87345 13.3332 6.75041 13.2921 6.64933 13.2161C5.56433 12.2793 2.33325 9.24592 2.33325 6.33334C2.33325 5.09566 2.82492 3.90868 3.70009 3.03351C4.57526 2.15834 5.76224 1.66667 6.99992 1.66667C8.23759 1.66667 9.42458 2.15834 10.2997 3.03351C11.1749 3.90868 11.6666 5.09566 11.6666 6.33334Z" stroke="#8A8A8E" stroke-linecap="round" stroke-linejoin="round"/>
<path d="M7 8.08333C7.9665 8.08333 8.75 7.29983 8.75 6.33333C8.75 5.36683 7.9665 4.58333 7 4.58333C6.0335 4.58333 5.25 5.36683 5.25 6.33333C5.25 7.29983 6.0335 8.08333 7 8.08333Z" stroke="#8A8A8E" stroke-linecap="round" stroke-linejoin="round"/>
</svg>
