<svg width="44" height="44" viewBox="0 0 44 44" fill="none" xmlns="http://www.w3.org/2000/svg">
<rect width="44" height="44" rx="8" fill="#20014B"/>
<path d="M28.9657 29.8516H14.3828V28.4688H28.9581C29.1441 28.4753 29.3206 28.5521 29.4522 28.6837C29.5838 28.8153 29.6606 28.9918 29.6672 29.1778C29.6587 29.3599 29.5802 29.5317 29.4481 29.6572C29.316 29.7828 29.1404 29.8525 28.9581 29.8516" fill="#42CACD"/>
<path d="M27.5828 32.6172H14.3828V31.2344H27.569C27.7513 31.2425 27.9234 31.3208 28.0492 31.453C28.1751 31.5852 28.2449 31.7609 28.2441 31.9434C28.2434 32.1221 28.172 32.2933 28.0455 32.4196C27.919 32.5458 27.7477 32.6169 27.569 32.6172" fill="#42CACD"/>
<path d="M28.9744 12C29.1533 12.0007 29.3246 12.072 29.4511 12.1985C29.5775 12.3249 29.6488 12.4962 29.6495 12.6751C29.65 12.8574 29.5801 13.0328 29.4542 13.1647C29.3284 13.2966 29.1565 13.3747 28.9744 13.3829H15.7656V12H28.9744Z" fill="#42CACD"/>
<path d="M28.9757 14.7656C29.1545 14.766 29.3258 14.837 29.4523 14.9633C29.5788 15.0895 29.6501 15.2607 29.6508 15.4395C29.6513 15.6219 29.5814 15.7974 29.4556 15.9295C29.3299 16.0616 29.1579 16.1401 28.9757 16.1485H14.3828V14.7656H28.9757Z" fill="#42CACD"/>
<path d="M19.1965 17.5312C19.3823 17.5381 19.5587 17.615 19.6902 17.7465C19.8217 17.878 19.8986 18.0544 19.9055 18.2403C19.8971 18.4224 19.8186 18.5942 19.6864 18.7197C19.5543 18.8453 19.3787 18.915 19.1965 18.9141H13V17.5312H19.1965Z" fill="#42CACD"/>
<path d="M30.184 25.7026C30.3697 25.7092 30.5461 25.7858 30.6777 25.9171C30.8092 26.0484 30.8862 26.2247 30.893 26.4104C30.8846 26.5926 30.8062 26.7645 30.6741 26.8903C30.542 27.0161 30.3664 27.086 30.184 27.0855H23.9373V25.7026H30.184Z" fill="#42CACD"/>
<path d="M27.5702 20.2974C27.7487 20.298 27.9198 20.3692 28.046 20.4955C28.1722 20.6217 28.2434 20.7927 28.2441 20.9712C28.2455 21.1537 28.1761 21.3296 28.0504 21.4618C27.9247 21.5941 27.7525 21.6724 27.5702 21.6802H14.3828V20.2974H27.5702Z" fill="#42CACD"/>
<path d="M28.9656 24.3199H15.7656V22.937H28.9845C29.1667 22.9451 29.3386 23.0235 29.4643 23.1557C29.5899 23.2879 29.6595 23.4637 29.6583 23.646C29.6576 23.8245 29.5864 23.9956 29.4602 24.1218C29.334 24.248 29.163 24.3192 28.9845 24.3199" fill="#42CACD"/>
</svg>
