<svg width="401" height="392" viewBox="0 0 401 392" fill="none" xmlns="http://www.w3.org/2000/svg">
<path d="M170.924 1.43127C173.834 2.46127 176.724 3.54127 179.614 4.64127C197.054 11.1713 209.154 9.23127 226.234 2.64127C233.554 -0.128729 242.884 -1.23873 250.304 1.89127C258.364 6.73127 265.444 14.3513 271.234 21.6413C273.024 23.3513 273.024 23.3513 274.924 24.7713C275.834 25.4813 275.834 25.4813 276.754 26.2113C284.944 30.9213 293.954 31.4913 303.184 32.3713C311.544 33.2713 321.574 34.8913 327.914 40.9513C333.244 47.7813 335.874 56.2713 338.734 64.3313C343.564 77.6813 349.324 84.1013 361.234 91.6413C379.114 103.081 379.114 103.081 382.234 111.641C382.614 115.361 382.564 119.031 382.484 122.771C382.484 123.751 382.474 124.741 382.474 125.761C382.424 129.921 382.294 133.621 381.234 137.641C380.244 152.401 383.514 161.421 391.534 173.761C397.224 182.531 401.954 190.861 400.234 201.641C397.574 208.561 393.984 214.791 389.614 220.771C381.974 231.391 380.234 240.891 381.234 253.641C381.404 254.271 381.574 254.911 381.744 255.561C382.714 259.611 382.464 263.811 382.484 267.951C382.524 269.341 382.524 269.341 382.554 270.761C382.594 277.731 381.764 282.671 377.114 288.141C370.964 293.491 364.694 298.051 357.664 302.181C355.354 303.571 353.124 305.021 350.924 306.581C350.034 307.211 350.034 307.211 349.124 307.861C343.694 312.991 341.104 318.911 338.734 325.891C338.144 327.581 337.534 329.261 336.934 330.951C336.644 331.761 336.354 332.561 336.064 333.391C332.714 342.541 329.514 350.841 320.364 355.331C313.364 358.051 306.124 358.801 298.684 359.571C283.784 361.141 275.474 365.941 265.254 376.741C258.014 384.211 251.164 390.701 240.364 390.951C232.114 390.891 225.034 388.561 217.434 385.521C203.324 379.941 192.464 381.851 178.514 387.021C169.234 390.431 159.694 393.321 150.144 389.361C147.644 387.931 145.394 386.551 143.234 384.641C143.234 383.981 143.234 383.321 143.234 382.641C142.664 382.411 142.094 382.171 141.494 381.931C138.704 380.341 137.164 378.421 135.114 375.951C123.504 362.911 110.474 360.211 93.8441 358.351C85.3341 357.371 78.3841 355.971 72.2341 349.641C70.3341 346.651 70.3341 346.651 68.7341 343.331C68.4541 342.731 68.1641 342.131 67.8641 341.511C65.6741 336.881 63.8641 332.141 62.1141 327.331C56.4441 311.881 48.7641 304.941 34.5941 296.871C27.9041 293.031 21.0941 288.491 18.6441 280.751C18.1941 278.421 18.1141 276.271 18.1041 273.901C18.1041 273.001 18.1041 272.101 18.1041 271.171C18.1041 269.761 18.1041 269.761 18.1141 268.331C18.1041 266.941 18.1041 266.941 18.1041 265.531C18.1141 260.461 18.4441 255.661 19.2341 250.641C20.2641 237.001 16.1941 228.671 8.94414 217.521C3.30414 208.831 -0.845871 201.271 0.234129 190.641C2.11413 184.191 6.02413 178.441 9.43413 172.711C11.1841 169.731 12.8841 166.731 14.5541 163.701C15.0241 162.851 15.4941 161.991 15.9741 161.111C21.4241 150.441 19.6641 138.311 17.6741 126.821C16.6041 119.011 17.2041 112.231 21.6141 105.571C28.2141 97.4913 37.2241 92.1813 46.0941 86.9213C56.0141 81.0013 59.6941 71.2313 63.1741 60.6413C69.5141 42.4113 69.5141 42.4113 77.4841 37.2013C86.7741 33.0013 96.7741 31.9013 106.814 30.9113C115.274 29.9513 122.514 27.8213 128.864 21.8913C129.984 20.8513 129.984 20.8513 131.134 19.7813C133.074 17.8113 134.844 15.7813 136.614 13.6413C145.724 2.82127 157.034 -2.65873 170.924 1.43127Z" fill="#217FF6"/>
<path d="M302.492 286.387C302.492 272.964 299.848 259.673 294.711 247.272C289.574 234.87 282.045 223.602 272.554 214.111C263.062 204.619 251.794 197.09 239.393 191.953C226.992 186.817 213.7 184.173 200.277 184.173C186.854 184.173 173.563 186.817 161.161 191.953C148.76 197.09 137.492 204.619 128 214.111C118.509 223.602 110.98 234.87 105.843 247.272C100.706 259.673 98.0625 272.964 98.0625 286.387L302.492 286.387Z" fill="white"/>
<circle cx="200.286" cy="126.93" r="42.9301" fill="white"/>
</svg>
