<svg width="500" height="500" viewBox="0 0 500 500" fill="none" xmlns="http://www.w3.org/2000/svg">
<path d="M245.636 -0.00435921L0 254.359L250.65 496.41L500 245.632L245.636 -0.00435921Z" fill="white"/>
<path d="M353.599 337.653C353.599 324.23 350.955 310.938 345.818 298.537C340.682 286.136 333.153 274.868 323.661 265.376C314.17 255.885 302.902 248.356 290.5 243.219C278.099 238.082 264.808 235.438 251.385 235.438C237.961 235.438 224.67 238.082 212.269 243.219C199.867 248.356 188.599 255.885 179.108 265.376C169.616 274.868 162.087 286.136 156.951 298.537C151.814 310.939 149.17 324.23 149.17 337.653L353.599 337.653Z" fill="#95ACC2"/>
<circle cx="251.391" cy="178.196" r="42.9301" fill="#95ACC2"/>
</svg>
